<svg xmlns="http://www.w3.org/2000/svg" viewBox="0 0 679.06 692"><defs><style>.d{stroke-width:2px}.d,.e,.f,.g,.h,.i,.j,.k,.l{stroke:#673db6}.d,.e,.f,.g,.h,.i,.j,.k,.l,.m{stroke-miterlimit:10}.d,.g,.l{fill:none}.n{fill:#e4d8fd}.e{stroke-width:5.5px}.e,.h,.i,.j{fill:#cab1fb}.f{stroke-width:9px}.f,.k,.o{fill:#9d6ff3}.p{fill:#673db6}.g{stroke-width:4px}.h{stroke-width:5px}.i{stroke-width:3px}.j{stroke-width:6px}.k{stroke-width:8px}.l{stroke-width:2.5px}.m{fill:#fff;stroke:#fff;stroke-width:44px}</style></defs><g id="b"><g id="c"><g><path d="M62.99,346c-22.64,0-40.99,18.35-40.99,40.99v242.03c0,22.64,18.35,40.99,40.99,40.99H616.07c22.64,0,40.99-18.35,40.99-40.99v-242.03c0-22.64-18.35-40.99-40.99-40.99,22.64,0,40.99-18.35,40.99-40.99V62.99c0-22.64-18.35-40.99-40.99-40.99H62.99c-22.64,0-40.99,18.35-40.99,40.99v242.03c0,22.64,18.35,40.99,40.99,40.99Z" class="m"/><rect width="635.06" height="324" x="21.99" y="22" class="p" rx="40.99" ry="40.99"/><rect width="615.84" height="285.52" x="31.6" y="31.24" class="n" rx="35.36" ry="35.36"/><rect width="438.79" height="256.7" x="120.12" y="45.65" class="k" rx="5.15" ry="5.15"/><rect width="635.06" height="324" x="21.99" y="346" class="p" rx="40.99" ry="40.99"/><rect width="615.84" height="303.39" x="31.61" y="355.47" class="n" rx="36.45" ry="36.45"/><rect width="353.36" height="259.91" x="162.85" y="377.21" class="f" rx="4.65" ry="4.65" transform="translate(679.06 1014.34) rotate(180)"/><circle cx="590.1" cy="454.78" r="14.56" class="h"/><circle cx="559.71" cy="485.84" r="14.56" class="h"/><circle cx="559.71" cy="412.09" r="11.66" class="i"/><g><path d="M100.88,555.63v18.05c0,3.56-2.89,6.45-6.45,6.45h-11.28c-3.56,0-6.45-2.89-6.45-6.45v-18.05h-17.73c-3.56,0-6.45-2.89-6.45-6.45v-11.28c0-3.56,2.89-6.45,6.45-6.45h17.73v-18.05c0-3.56,2.89-6.45,6.45-6.45h11.28c3.56,0,6.45,2.89,6.45,6.45v18.05h17.73c3.56,0,6.45,2.89,6.45,6.45v11.28c0,3.56-2.89,6.45-6.45,6.45h-17.73Z" class="e"/><line x1="88.79" x2="88.79" y1="531.45" y2="515.42" class="l"/><line x1="100.88" x2="116.91" y1="543.54" y2="543.54" class="l"/><line x1="88.79" x2="88.79" y1="555.63" y2="571.66" class="l"/><line x1="76.7" x2="60.67" y1="543.54" y2="543.54" class="l"/></g><g><circle cx="88.79" cy="432.53" r="25.94" class="j"/><circle cx="88.79" cy="432.53" r="43.67" class="d"/></g><circle cx="559.71" cy="589.16" r="11.66" class="i"/><circle cx="590.1" cy="518.57" r="14.56" class="h"/><circle cx="620.48" cy="487.51" r="14.56" class="h"/><circle cx="559.71" cy="628.26" r="11.66" class="i"/><circle cx="120.55" cy="628.26" r="11.66" class="i"/><rect width="438.79" height="19.76" x="120.12" y="326.34" class="o" rx="9.88" ry="9.88" transform="translate(679.04 672.45) rotate(-180)"/><circle cx="339.52" cy="336.22" r="5.64" class="g"/><circle cx="381.41" cy="336.22" r="2.39" class="p"/></g></g></g></svg>